<?xml version="1.0" standalone="no"?>
<!DOCTYPE svg PUBLIC "-//W3C//DTD SVG 20010904//EN"
 "http://www.w3.org/TR/2001/REC-SVG-20010904/DTD/svg10.dtd">
<svg version="1.0" xmlns="http://www.w3.org/2000/svg"
 width="260.000000pt" height="260.000000pt" viewBox="0 0 260.000000 260.000000"
 preserveAspectRatio="xMidYMid meet">
<metadata>
Created by potrace 1.11, written by Peter Selinger 2001-2013
</metadata>
<g transform="translate(0.000000,260.000000) scale(0.100000,-0.100000)"
fill="#000000" stroke="none">
<path d="M5 2588 c-3 -7 -4 -591 -3 -1298 l3 -1285 1295 0 1295 0 0 1295 0
1295 -1293 3 c-1029 2 -1294 0 -1297 -10z m725 -1178 l0 -530 325 0 325 0 0
-110 0 -110 -450 0 -450 0 0 640 0 640 125 0 125 0 0 -530z m1540 420 l0 -110
-205 0 -205 0 0 -530 0 -530 -125 0 -125 0 0 530 0 530 -200 0 -200 0 0 110 0
110 530 0 530 0 0 -110z"/>
</g>
</svg>
